<?xml version="1.0" encoding="iso-8859-1"?>
<!-- Generator: Adobe Illustrator 19.0.0, SVG Export Plug-In . SVG Version: 6.00 Build 0)  -->
<svg version="1.1" id="Capa_1" xmlns="http://www.w3.org/2000/svg" xmlns:xlink="http://www.w3.org/1999/xlink" x="0px" y="0px"
	 viewBox="0 0 512 512" style="enable-background:new 0 0 512 512;" xml:space="preserve">
<path style="fill:#303C42;" d="M256,0C150.135,0,64,86.135,64,192c0,79.406,49.396,150.813,123.406,179.156l58.823,134.448
	C247.927,509.49,251.76,512,256,512c4.24,0,8.073-2.51,9.771-6.396l58.823-134.448C398.604,342.813,448,271.406,448,192
	C448,86.135,361.865,0,256,0z"/>
<path style="fill:#FBC02D;" d="M313.073,352.667c-2.771,0.99-5.021,3.073-6.198,5.781L256,474.719l-50.875-116.271
	c-1.177-2.708-3.427-4.792-6.198-5.781C130.979,328.531,85.333,263.958,85.333,192c0-94.104,76.563-170.667,170.667-170.667
	S426.667,97.896,426.667,192C426.667,263.958,381.021,328.531,313.073,352.667z"/>
<circle style="fill:#303C42;" cx="256" cy="192" r="106.667"/>
<circle style="fill:#FFFFFF;" cx="256" cy="192" r="85.333"/>
<path style="opacity:0.1;enable-background:new    ;" d="M202.667,234.667c0-47.052,38.271-85.333,85.333-85.333
	c17.978,0,34.621,5.65,48.389,15.177c-11.508-33.527-43-57.844-80.389-57.844c-47.063,0-85.333,38.281-85.333,85.333
	c0,29.078,14.668,54.742,36.944,70.156C204.633,253.483,202.667,244.337,202.667,234.667z"/>
<linearGradient id="SVGID_1_" gradientUnits="userSpaceOnUse" x1="-43.8402" y1="639.1847" x2="-27.5321" y2="631.5792" gradientTransform="matrix(21.3333 0 0 -21.3333 996.3334 13791.667)">
	<stop  offset="0" style="stop-color:#FFFFFF;stop-opacity:0.2"/>
	<stop  offset="1" style="stop-color:#FFFFFF;stop-opacity:0"/>
</linearGradient>
<path style="fill:url(#SVGID_1_);" d="M256,0C150.135,0,64,86.135,64,192c0,79.406,49.396,150.813,123.406,179.156l58.823,134.448
	C247.927,509.49,251.76,512,256,512c4.24,0,8.073-2.51,9.771-6.396l58.823-134.448C398.604,342.813,448,271.406,448,192
	C448,86.135,361.865,0,256,0z"/>
<g>
</g>
<g>
</g>
<g>
</g>
<g>
</g>
<g>
</g>
<g>
</g>
<g>
</g>
<g>
</g>
<g>
</g>
<g>
</g>
<g>
</g>
<g>
</g>
<g>
</g>
<g>
</g>
<g>
</g>
</svg>
